<?xml version="1.0" encoding="UTF-8"?>
<!DOCTYPE svg PUBLIC "-//W3C//DTD SVG 1.1//EN" "http://www.w3.org/Graphics/SVG/1.1/DTD/svg11.dtd">
<svg xmlns="http://www.w3.org/2000/svg" version="1.1" width="1500px" height="1500px" style="shape-rendering:geometricPrecision; text-rendering:geometricPrecision; image-rendering:optimizeQuality; fill-rule:evenodd; clip-rule:evenodd" xmlns:xlink="http://www.w3.org/1999/xlink">
<g><path style="opacity:0.965" fill="#a6a4f3" d="M 445.5,682.5 C 481.056,681.64 514.722,689.14 546.5,705C 557.397,714.091 560.064,725.258 554.5,738.5C 524.324,721.581 492.324,709.414 458.5,702C 432.82,698.335 407.82,701.002 383.5,710C 364.27,719.563 345.27,729.563 326.5,740C 325.167,740.667 323.833,740.667 322.5,740C 356.155,705.173 397.155,686.006 445.5,682.5 Z"/></g>
<g><path style="opacity:0.977" fill="#a6a4f3" d="M 607.5,695.5 C 612.179,695.334 616.845,695.501 621.5,696C 622,696.5 622.5,697 623,697.5C 623.234,708.533 623.734,719.533 624.5,730.5C 629.636,729.607 634.636,728.107 639.5,726C 661.447,723.553 674.947,733.053 680,754.5C 683.62,772.207 679.12,787.373 666.5,800C 651.893,809.21 637.893,808.377 624.5,797.5C 623.692,799.423 623.192,801.423 623,803.5C 622.25,804.126 621.416,804.626 620.5,805C 616.167,805.667 611.833,805.667 607.5,805C 606.333,804.5 605.5,803.667 605,802.5C 604.333,767.833 604.333,733.167 605,698.5C 605.698,697.309 606.531,696.309 607.5,695.5 Z M 640.5,741.5 C 654.735,743.247 661.735,751.414 661.5,766C 661.379,776.599 656.712,784.266 647.5,789C 631.565,789.568 623.565,781.735 623.5,765.5C 623.331,753.116 628.998,745.116 640.5,741.5 Z"/></g>
<g><path style="opacity:0.966" fill="#a5a3f2" d="M 783.5,707.5 C 788.565,707.219 793.565,707.552 798.5,708.5C 799.192,709.025 799.692,709.692 800,710.5C 800.195,715.418 800.695,720.251 801.5,725C 806.721,726.232 812.054,726.899 817.5,727C 818,727.5 818.5,728 819,728.5C 819.667,731.833 819.667,735.167 819,738.5C 818.5,739 818,739.5 817.5,740C 813.167,740.333 808.833,740.667 804.5,741C 803.376,741.249 802.376,741.749 801.5,742.5C 800.351,756.455 800.184,770.455 801,784.5C 801.833,786.667 803.333,788.167 805.5,789C 810.435,789.176 815.269,789.343 820,789.5C 820.667,793.833 820.667,798.167 820,802.5C 809.302,807.838 798.802,807.338 788.5,801C 783.482,796.288 780.982,790.454 781,783.5C 780.667,769.833 780.333,756.167 780,742.5C 777.404,740.98 774.571,740.147 771.5,740C 769.955,738.178 769.288,736.011 769.5,733.5C 769.288,730.989 769.955,728.822 771.5,727C 774.571,726.853 777.404,726.02 780,724.5C 780.333,720.167 780.667,715.833 781,711.5C 781.662,710.016 782.496,708.683 783.5,707.5 Z"/></g>
<g><path style="opacity:0.974" fill="#a6a4f3" d="M 419.5,712.5 C 444.974,711.628 469.307,716.461 492.5,727C 510.283,736.314 528.283,745.147 546.5,753.5C 550.634,758.269 551.468,763.602 549,769.5C 520.214,797.888 485.548,813.555 445,816.5C 414.202,815.24 387.369,804.406 364.5,784C 355.285,775.287 346.618,766.12 338.5,756.5C 359.342,730.578 386.342,715.911 419.5,712.5 Z M 434.5,718.5 C 466.329,717.666 484.329,733 488.5,764.5C 486.33,789.502 472.997,804.669 448.5,810C 416.916,810.751 399.249,795.418 395.5,764C 397.971,739.702 410.971,724.536 434.5,718.5 Z M 438.5,743.5 C 455.307,744.138 463.141,752.804 462,769.5C 456.53,783.438 446.697,787.938 432.5,783C 420.988,775.105 418.488,764.939 425,752.5C 428.528,747.834 433.028,744.834 438.5,743.5 Z"/></g>
<g><path style="opacity:0.961" fill="#a6a4f3" d="M 719.5,725.5 C 751.037,724.206 764.537,739.206 760,770.5C 759.25,771.126 758.416,771.626 757.5,772C 742.833,772.333 728.167,772.667 713.5,773C 711.376,775.408 711.543,777.908 714,780.5C 719.448,787.057 726.448,790.39 735,790.5C 741.54,789.491 748.04,788.658 754.5,788C 756.045,789.822 756.712,791.989 756.5,794.5C 756.647,797.253 755.98,799.753 754.5,802C 737.468,808.661 721.135,807.328 705.5,798C 691.391,783.124 687.891,765.957 695,746.5C 699.783,735.385 707.95,728.385 719.5,725.5 Z M 725.5,740.5 C 735.993,740.164 741.493,745.164 742,755.5C 741.5,756 741,756.5 740.5,757C 731.5,757.667 722.5,757.667 713.5,757C 712.041,753.047 712.874,749.547 716,746.5C 718.843,743.837 722.009,741.837 725.5,740.5 Z"/></g>
<g><path style="opacity:0.966" fill="#a6a4f3" d="M 861.5,724.5 C 869.597,724.524 877.264,726.358 884.5,730C 889.86,734.219 893.027,739.719 894,746.5C 894.667,765.5 894.667,784.5 894,803.5C 893.25,804.126 892.416,804.626 891.5,805C 887.167,805.667 882.833,805.667 878.5,805C 876.462,803.764 875.295,801.931 875,799.5C 872.125,802.463 868.625,804.296 864.5,805C 837.925,807.767 827.758,796.267 834,770.5C 838.208,765.144 843.708,761.978 850.5,761C 858.167,759.333 865.833,757.667 873.5,756C 874.428,755.612 875.095,754.945 875.5,754C 875.043,748.393 872.377,744.393 867.5,742C 858.81,740.979 850.31,741.812 842,744.5C 840.564,744.441 839.231,744.108 838,743.5C 837.333,739.167 837.333,734.833 838,730.5C 838.5,730 839,729.5 839.5,729C 846.755,726.412 854.088,724.912 861.5,724.5 Z M 871.5,769.5 C 874.617,770.725 875.95,773.059 875.5,776.5C 873.868,789.626 866.868,793.793 854.5,789C 849.583,782.068 850.917,776.735 858.5,773C 862.974,771.88 867.307,770.714 871.5,769.5 Z"/></g>
<g><path style="opacity:0.961" fill="#a6a4f3" d="M 970.5,725.5 C 1001.44,723.941 1014.94,738.607 1011,769.5C 1010.17,770.333 1009.33,771.167 1008.5,772C 993.833,772.333 979.167,772.667 964.5,773C 963.426,773.739 962.759,774.739 962.5,776C 966.983,786.003 974.816,790.836 986,790.5C 992.497,789.212 998.997,788.379 1005.5,788C 1006.63,792.079 1006.8,796.245 1006,800.5C 1005.1,801.701 1003.93,802.535 1002.5,803C 986.85,808.334 971.85,807 957.5,799C 944.301,787.4 939.468,772.9 943,755.5C 946.173,739.834 955.339,729.834 970.5,725.5 Z M 976.5,740.5 C 988.104,740.283 993.104,745.783 991.5,757C 982.5,757.667 973.5,757.667 964.5,757C 962.169,754.21 962.336,751.376 965,748.5C 968.15,744.689 971.983,742.023 976.5,740.5 Z"/></g>
<g><path style="opacity:0.96" fill="#a6a4f3" d="M 1130.5,725.5 C 1162.54,724.367 1175.87,739.534 1170.5,771C 1155.26,772.302 1139.93,772.969 1124.5,773C 1123.2,775.545 1123.37,778.045 1125,780.5C 1130.45,787.057 1137.45,790.39 1146,790.5C 1151.75,789.93 1157.42,788.93 1163,787.5C 1164.17,787.833 1165.33,788.167 1166.5,788.5C 1167.6,792.442 1167.77,796.442 1167,800.5C 1166.1,801.701 1164.93,802.535 1163.5,803C 1147.02,808.481 1131.35,806.814 1116.5,798C 1107.09,789.271 1102.42,778.437 1102.5,765.5C 1102.28,745.111 1111.61,731.778 1130.5,725.5 Z M 1137.5,740.5 C 1146.43,740.431 1151.76,744.764 1153.5,753.5C 1153.47,755.029 1152.8,756.196 1151.5,757C 1142.45,757.805 1133.45,757.639 1124.5,756.5C 1123.37,754.926 1123.2,753.259 1124,751.5C 1126.94,745.797 1131.44,742.131 1137.5,740.5 Z"/></g>
<g><path style="opacity:0.968" fill="#a6a4f3" d="M 437.5,726.5 C 467.196,727.572 481.029,742.905 479,772.5C 471.661,795.152 456.161,804.652 432.5,801C 409.972,792.452 401.139,776.285 406,752.5C 411.849,738.147 422.349,729.48 437.5,726.5 Z M 438.5,743.5 C 433.028,744.834 428.528,747.834 425,752.5C 418.488,764.939 420.988,775.105 432.5,783C 446.697,787.938 456.53,783.438 462,769.5C 463.141,752.804 455.307,744.138 438.5,743.5 Z"/></g>
<g><path style="opacity:0.968" fill="#a6a4f3" d="M 1022.5,726.5 C 1027.84,726.334 1033.18,726.501 1038.5,727C 1039,727.5 1039.5,728 1040,728.5C 1046.35,745.545 1052.68,762.545 1059,779.5C 1064.27,762.363 1069.93,745.363 1076,728.5C 1076.5,728 1077,727.5 1077.5,727C 1082.5,726.333 1087.5,726.333 1092.5,727C 1093.89,727.956 1094.56,729.289 1094.5,731C 1086.34,753.487 1078.17,775.987 1070,798.5C 1066.25,810.549 1059.75,820.715 1050.5,829C 1042.38,833.941 1033.88,835.107 1025,832.5C 1023.07,827.806 1023.07,823.139 1025,818.5C 1036.8,819.509 1044.63,814.342 1048.5,803C 1038.89,779.111 1029.56,755.111 1020.5,731C 1020.52,729.167 1021.19,727.667 1022.5,726.5 Z"/></g>
</svg>
