<?xml version="1.0"?>
<svg width="198" height="36" xmlns="http://www.w3.org/2000/svg" xmlns:svg="http://www.w3.org/2000/svg" clip-rule="evenodd" fill-rule="evenodd" version="1.1">
 <title>logo200px</title>
 <g class="layer">
  <title>Layer 1</title>
  <g id="svg_21">
   <g id="svg_1">
    <path d="m28.7,0.02c8.3,-0.21 16.15,1.6 23.57,5.41c2.54,2.19 3.16,4.87 1.87,8.06c-7.04,-4.07 -14.51,-7 -22.4,-8.78c-5.99,-0.88 -11.83,-0.24 -17.5,1.92c-4.49,2.3 -8.92,4.7 -13.3,7.22c-0.31,0.16 -0.62,0.16 -0.93,0c7.85,-8.38 17.42,-12.99 28.7,-13.83z" fill="#a6a4f3" id="svg_2" opacity="0.96"/>
   </g>
   <g id="svg_3">
    <path d="m66.51,3.15c1.09,-0.04 2.18,0 3.27,0.12c0.12,0.12 0.23,0.24 0.35,0.36c0.05,2.65 0.17,5.3 0.35,7.94c1.2,-0.21 2.37,-0.57 3.5,-1.08c5.12,-0.59 8.27,1.7 9.45,6.85c0.84,4.26 -0.21,7.91 -3.15,10.94c-3.41,2.22 -6.68,2.02 -9.8,-0.6c-0.19,0.46 -0.31,0.94 -0.35,1.44c-0.18,0.15 -0.37,0.27 -0.58,0.36c-1.01,0.16 -2.02,0.16 -3.03,0c-0.27,-0.12 -0.47,-0.32 -0.58,-0.6c-0.16,-8.34 -0.16,-16.67 0,-25.01c0.16,-0.29 0.36,-0.53 0.58,-0.72zm7.7,11.06c3.32,0.42 4.96,2.38 4.9,5.89c-0.03,2.55 -1.12,4.39 -3.27,5.53c-3.72,0.14 -5.58,-1.75 -5.6,-5.65c-0.04,-2.98 1.28,-4.9 3.97,-5.77z" fill="#a6a4f3" id="svg_4" opacity="0.98"/>
   </g>
   <g id="svg_5">
    <path d="m107.58,6.03c1.18,-0.07 2.35,0.01 3.5,0.24c0.16,0.13 0.28,0.29 0.35,0.48c0.05,1.18 0.16,2.35 0.35,3.49c1.22,0.3 2.46,0.46 3.73,0.48c0.12,0.12 0.23,0.24 0.35,0.36c0.16,0.8 0.16,1.6 0,2.41c-0.12,0.12 -0.23,0.24 -0.35,0.36c-1.01,0.08 -2.02,0.16 -3.03,0.24c-0.26,0.06 -0.49,0.18 -0.7,0.36c-0.27,3.36 -0.31,6.72 -0.12,10.1c0.19,0.52 0.54,0.88 1.05,1.08c1.15,0.04 2.28,0.08 3.38,0.12c0.16,1.04 0.16,2.09 0,3.13c-2.5,1.28 -4.95,1.16 -7.35,-0.36c-1.17,-1.13 -1.75,-2.54 -1.75,-4.21c-0.08,-3.29 -0.16,-6.57 -0.23,-9.86c-0.61,-0.37 -1.27,-0.57 -1.98,-0.6c-0.36,-0.44 -0.52,-0.96 -0.47,-1.56c-0.05,-0.6 0.11,-1.13 0.47,-1.56c0.72,-0.04 1.38,-0.24 1.98,-0.6c0.08,-1.04 0.16,-2.09 0.23,-3.13c0.15,-0.36 0.35,-0.68 0.58,-0.96z" fill="#a5a3f2" id="svg_6" opacity="0.97"/>
   </g>
   <g id="svg_7">
    <path d="m22.64,7.24c5.94,-0.21 11.62,0.95 17.04,3.49c4.15,2.24 8.35,4.37 12.6,6.37c0.96,1.15 1.16,2.43 0.58,3.85c-6.72,6.83 -14.81,10.59 -24.27,11.3c-7.19,-0.3 -13.45,-2.91 -18.79,-7.82c-2.15,-2.09 -4.17,-4.3 -6.07,-6.61c4.86,-6.23 11.16,-9.76 18.9,-10.58zm3.5,1.44c7.43,-0.2 11.63,3.49 12.6,11.06c-0.51,6.01 -3.62,9.66 -9.33,10.94c-7.37,0.18 -11.49,-3.51 -12.37,-11.06c0.58,-5.84 3.61,-9.49 9.1,-10.94zm0.93,6.01c3.92,0.15 5.75,2.24 5.48,6.25c-1.28,3.35 -3.57,4.44 -6.88,3.25c-2.69,-1.9 -3.27,-4.34 -1.75,-7.34c0.82,-1.12 1.87,-1.84 3.15,-2.16z" fill="#a6a4f3" id="svg_8" opacity="0.97"/>
   </g>
   <g id="svg_9">
    <path d="m92.64,10.36c7.36,-0.31 10.51,3.3 9.45,10.82c-0.18,0.15 -0.37,0.27 -0.58,0.36c-3.42,0.08 -6.84,0.16 -10.27,0.24c-0.49,0.58 -0.46,1.18 0.12,1.8c1.27,1.58 2.91,2.38 4.9,2.41c1.53,-0.24 3.04,-0.44 4.55,-0.6c0.36,0.44 0.52,0.96 0.47,1.56c0.04,0.66 -0.12,1.26 -0.47,1.8c-3.97,1.6 -7.79,1.28 -11.43,-0.96c-3.29,-3.58 -4.11,-7.71 -2.45,-12.39c1.12,-2.67 3.02,-4.36 5.72,-5.05zm1.4,3.61c2.45,-0.08 3.73,1.12 3.85,3.61c-0.12,0.12 -0.23,0.24 -0.35,0.36c-2.1,0.16 -4.2,0.16 -6.3,0c-0.34,-0.95 -0.15,-1.79 0.58,-2.53c0.66,-0.64 1.4,-1.12 2.22,-1.44z" fill="#a6a4f3" id="svg_10" opacity="0.96"/>
   </g>
   <g id="svg_11">
    <path d="m125.78,10.12c1.89,0 3.68,0.45 5.37,1.32c1.25,1.01 1.99,2.34 2.22,3.97c0.16,4.57 0.16,9.14 0,13.71c-0.18,0.15 -0.37,0.27 -0.58,0.36c-1.01,0.16 -2.02,0.16 -3.03,0c-0.48,-0.3 -0.75,-0.74 -0.82,-1.32c-0.67,0.71 -1.49,1.15 -2.45,1.32c-6.2,0.67 -8.57,-2.1 -7.12,-8.3c0.98,-1.29 2.27,-2.05 3.85,-2.28c1.79,-0.4 3.58,-0.8 5.37,-1.2c0.22,-0.09 0.37,-0.25 0.47,-0.48c-0.11,-1.35 -0.73,-2.31 -1.87,-2.89c-2.03,-0.25 -4.01,-0.05 -5.95,0.6c-0.34,-0.01 -0.65,-0.09 -0.93,-0.24c-0.16,-1.04 -0.16,-2.09 0,-3.13c0.12,-0.12 0.23,-0.24 0.35,-0.36c1.69,-0.62 3.4,-0.98 5.13,-1.08zm2.33,10.82c0.73,0.3 1.04,0.86 0.93,1.68c-0.38,3.16 -2.01,4.16 -4.9,3.01c-1.15,-1.67 -0.84,-2.95 0.93,-3.85c1.04,-0.27 2.06,-0.55 3.03,-0.84z" fill="#a6a4f3" id="svg_12" opacity="0.97"/>
   </g>
   <g id="svg_13">
    <path d="m151.22,10.36c7.22,-0.38 10.37,3.15 9.45,10.58c-0.19,0.2 -0.39,0.4 -0.58,0.6c-3.42,0.08 -6.84,0.16 -10.27,0.24c-0.25,0.18 -0.41,0.42 -0.47,0.72c1.05,2.41 2.87,3.57 5.48,3.49c1.52,-0.31 3.03,-0.51 4.55,-0.6c0.26,0.98 0.3,1.98 0.12,3.01c-0.21,0.29 -0.48,0.49 -0.82,0.6c-3.65,1.28 -7.15,0.96 -10.5,-0.96c-3.08,-2.79 -4.21,-6.28 -3.38,-10.46c0.74,-3.77 2.88,-6.17 6.42,-7.22zm1.4,3.61c2.71,-0.05 3.87,1.27 3.5,3.97c-2.1,0.16 -4.2,0.16 -6.3,0c-0.54,-0.67 -0.5,-1.35 0.12,-2.04c0.74,-0.92 1.63,-1.56 2.68,-1.92z" fill="#a6a4f3" id="svg_14" opacity="0.96"/>
   </g>
   <g id="svg_15">
    <path d="m188.55,10.36c7.48,-0.27 10.59,3.37 9.33,10.94c-3.56,0.31 -7.13,0.47 -10.73,0.48c-0.3,0.61 -0.26,1.21 0.12,1.8c1.27,1.58 2.91,2.38 4.9,2.41c1.34,-0.14 2.66,-0.38 3.97,-0.72c0.27,0.08 0.54,0.16 0.82,0.24c0.26,0.95 0.3,1.91 0.12,2.89c-0.21,0.29 -0.48,0.49 -0.82,0.6c-3.85,1.32 -7.5,0.92 -10.97,-1.2c-2.2,-2.1 -3.29,-4.7 -3.27,-7.82c-0.05,-4.9 2.13,-8.11 6.53,-9.62zm1.63,3.61c2.08,-0.02 3.33,1.02 3.73,3.13c-0.01,0.37 -0.16,0.65 -0.47,0.84c-2.11,0.19 -4.21,0.15 -6.3,-0.12c-0.26,-0.38 -0.3,-0.78 -0.12,-1.2c0.69,-1.37 1.74,-2.25 3.15,-2.65z" fill="#a6a4f3" id="svg_16" opacity="0.96"/>
   </g>
   <g id="svg_17">
    <path d="m26.84,10.6c6.93,0.26 10.16,3.94 9.68,11.06c-1.71,5.45 -5.33,7.73 -10.85,6.85c-5.26,-2.06 -7.32,-5.95 -6.18,-11.66c1.37,-3.45 3.82,-5.54 7.35,-6.25zm0.23,4.09c-1.28,0.32 -2.33,1.04 -3.15,2.16c-1.52,2.99 -0.94,5.44 1.75,7.34c3.31,1.19 5.61,0.11 6.88,-3.25c0.27,-4.02 -1.56,-6.1 -5.48,-6.25z" fill="#a6a4f3" id="svg_18" opacity="0.97"/>
   </g>
   <g id="svg_19">
    <path d="m163.35,10.6c1.25,-0.04 2.49,0 3.73,0.12c0.12,0.12 0.23,0.24 0.35,0.36c1.48,4.1 2.96,8.19 4.43,12.27c1.23,-4.12 2.55,-8.21 3.97,-12.27c0.12,-0.12 0.23,-0.24 0.35,-0.36c1.17,-0.16 2.33,-0.16 3.5,0c0.32,0.23 0.48,0.55 0.47,0.96c-1.9,5.41 -3.81,10.82 -5.72,16.23c-0.88,2.9 -2.39,5.34 -4.55,7.34c-1.89,1.19 -3.88,1.47 -5.95,0.84c-0.45,-1.13 -0.45,-2.25 0,-3.37c2.75,0.24 4.58,-1 5.48,-3.73c-2.24,-5.75 -4.42,-11.52 -6.53,-17.32c0,-0.44 0.16,-0.8 0.47,-1.08z" fill="#a6a4f3" id="svg_20" opacity="0.97"/>
   </g>
  </g>
 </g>
</svg>